<?xml version="1.0" encoding="iso-8859-1"?>
<!-- Generator: Adobe Illustrator 18.0.0, SVG Export Plug-In . SVG Version: 6.00 Build 0)  -->
<!DOCTYPE svg PUBLIC "-//W3C//DTD SVG 1.1//EN" "http://www.w3.org/Graphics/SVG/1.1/DTD/svg11.dtd">
<svg version="1.1" id="Capa_1" xmlns="http://www.w3.org/2000/svg" xmlns:xlink="http://www.w3.org/1999/xlink" x="0px" y="0px"
	 viewBox="0 0 227.386 227.386" style="enable-background:new 0 0 227.386 227.386;" xml:space="preserve">
<g>
	<g>
		<path style="fill-rule:evenodd;clip-rule:evenodd;fill:#1A1A1A;" d="M139.297,79.978c-4.52,11.762-15.271,27.032-31.371,37.72
			l2.536,3.65c13.698-6.673,26.434-17.316,32.377-25.461C145.896,91.696,143.494,82.021,139.297,79.978z"/>
		<g>
			<path style="fill-rule:evenodd;clip-rule:evenodd;fill:#323232;" d="M163.995,201.841c-1.123-24.093-2.243-48.186-3.365-72.278
				c5.189,0,10.379,0,15.568,0c-1.082,24.093-2.165,48.186-3.247,72.278C169.966,201.841,166.979,201.841,163.995,201.841z"/>
			<path style="fill-rule:evenodd;clip-rule:evenodd;fill:#323232;" d="M149.399,201.841c-1.122-24.093-2.243-48.186-3.365-72.278
				c5.189,0,10.379,0,15.568,0c-1.082,24.093-2.165,48.186-3.248,72.278C155.37,201.841,152.384,201.841,149.399,201.841z"/>
		</g>
		<rect x="144.718" y="130.474" style="fill-rule:evenodd;clip-rule:evenodd;fill:#1A1A1A;" width="32.598" height="3.379"/>
		<path style="fill-rule:evenodd;clip-rule:evenodd;fill:#1A1A1A;" d="M197.686,86.667c5.521-0.494,16.764-4.198,21.468-6.96
			l1.663,4.376c-4.215,3.866-15.746,9.255-21.233,11.213L197.686,86.667z"/>
		<path style="fill-rule:evenodd;clip-rule:evenodd;fill:#1A1A1A;" d="M183.03,79.857c5.758,2.332,11.177,5.415,18.905,7.011
			l-1.882,8.484c-7.306-0.406-12.079-2.19-16.371-3.373C171.673,88.667,170.431,74.754,183.03,79.857z"/>
		<path style="fill-rule:evenodd;clip-rule:evenodd;fill:#E7B791;" d="M221.454,78.305c1.617-0.477,2.326,0.161,2.242,1.351
			c2.286-1.005,3.535,0.95,3.49,2.69c-0.064,2.55,0.203,3.841-3.122,4.82c-3.325,0.979-6.604-0.21-7.325-2.657
			C216.019,82.062,218.13,79.284,221.454,78.305z"/>
		<path style="fill-rule:evenodd;clip-rule:evenodd;fill:#323232;" d="M177.315,132.07l5.669-52.23l-12.722-5.559H151.97
			c-4.241,1.853-10.139,3.374-12.722,5.559l5.47,52.23H177.315z"/>
		<polygon style="fill-rule:evenodd;clip-rule:evenodd;fill:#F5F0F0;" points="151.97,74.28 161.109,118.281 170.262,74.28 		"/>
		<g>
			<polygon style="fill-rule:evenodd;clip-rule:evenodd;fill:#1A1A1A;" points="151.97,74.28 143.39,83.905 153.312,92.411 
				146.224,97.018 161.109,118.281 			"/>
			<polygon style="fill-rule:evenodd;clip-rule:evenodd;fill:#1A1A1A;" points="170.262,74.28 178.829,83.905 168.906,92.411 
				175.994,97.018 161.109,118.281 			"/>
		</g>
		<polygon style="fill-rule:evenodd;clip-rule:evenodd;fill:#1A1A1A;" points="159.988,132.07 162.469,132.07 162.469,116.339 
			161.109,117.629 159.988,116.566 		"/>
		<rect x="155.412" y="60.689" style="fill-rule:evenodd;clip-rule:evenodd;fill:#C79369;" width="11.633" height="16.416"/>
		<polygon style="fill-rule:evenodd;clip-rule:evenodd;fill:#F5F0F0;" points="151.97,74.28 155.624,70.319 161.229,74.28 
			153.638,82.297 		"/>
		<polygon style="fill-rule:evenodd;clip-rule:evenodd;fill:#F5F0F0;" points="170.262,74.28 166.496,69.969 161.229,74.28 
			168.635,82.297 		"/>
		<polygon style="fill-rule:evenodd;clip-rule:evenodd;fill:#323232;" points="153.638,82.297 161.229,78.289 168.635,82.297 
			161.229,74.28 		"/>
		<polygon style="fill-rule:evenodd;clip-rule:evenodd;fill:#323232;" points="161.229,74.28 157.434,78.289 161.229,88.949 
			165.024,78.289 		"/>
		<polygon style="fill-rule:evenodd;clip-rule:evenodd;fill:#323232;" points="159.87,85.131 162.393,85.131 165.686,96.28 
			161.109,118.281 156.54,96.28 		"/>
		<path style="fill-rule:evenodd;clip-rule:evenodd;fill:#1A1A1A;" d="M149.466,206.305c4.896,0,8.89-2.005,8.89-4.465
			c0-2.459-3.994-4.465-8.89-4.465c-4.896,0-8.89,2.006-8.89,4.465C140.576,204.3,144.569,206.305,149.466,206.305z"/>
		<path style="fill-rule:evenodd;clip-rule:evenodd;fill:#1A1A1A;" d="M172.884,206.305c4.896,0,8.89-2.005,8.89-4.465
			c0-2.459-3.994-4.465-8.89-4.465c-4.896,0-8.89,2.006-8.89,4.465C163.995,204.3,167.988,206.305,172.884,206.305z"/>
		<path style="fill-rule:evenodd;clip-rule:evenodd;fill:#E7B791;" d="M103.766,118.401c-1.222,1.078-1.065,1.986-0.048,2.529
			c-1.998,1.354-2.383,3.883-1.545,4.833c1.631,1.848,4.99,1.55,7.502-0.667c2.512-2.218,3.226-5.513,1.594-7.361
			C109.637,115.885,106.278,116.184,103.766,118.401z"/>
		<path style="fill-rule:evenodd;clip-rule:evenodd;fill:#D9ECED;" d="M60.84,27.395c24.945,0,45.366,30.694,47.061,69.561
			c-12.914,10.177-29.269,16.262-47.061,16.262c-17.793,0-34.147-6.085-47.062-16.262C15.474,58.089,35.894,27.395,60.84,27.395z"/>
		<rect x="55.003" y="72.294" style="fill-rule:evenodd;clip-rule:evenodd;fill:#C79369;" width="11.633" height="16.416"/>
		<path style="fill-rule:evenodd;clip-rule:evenodd;fill:#E7B791;" d="M74.627,86.022c8.898,9.437,14.507,24.999,29.697,35.082
			l-2.393,3.444c-12.923-6.296-24.94-16.338-30.546-24.021C68.501,96.573,71.606,82.819,74.627,86.022z"/>
		<g>
			<path style="fill-rule:evenodd;clip-rule:evenodd;fill:#E7B791;" d="M58.104,202.093c1.059-22.729,2.116-45.46,3.175-68.19
				c-4.896,0-9.792,0-14.688,0c1.021,22.73,2.043,45.461,3.064,68.19C52.471,202.093,55.288,202.093,58.104,202.093z"/>
			<path style="fill-rule:evenodd;clip-rule:evenodd;fill:#E7B791;" d="M71.874,202.093c1.059-22.729,2.116-45.46,3.175-68.19
				c-4.896,0-9.792,0-14.688,0c1.021,22.73,2.043,45.461,3.064,68.19C66.241,202.093,69.058,202.093,71.874,202.093z"/>
		</g>
		<path style="fill-rule:evenodd;clip-rule:evenodd;fill:#E7B791;" d="M53.582,118.734l-6.67-33.215l8.09-3.535h11.633
			c2.697,1.381,6.357,2.317,8.09,4.144l-6.58,32.606H53.582z"/>
		<path style="fill-rule:evenodd;clip-rule:evenodd;fill:#F5F0F0;" d="M71.812,206.305c4.619,0,8.387-1.892,8.387-4.212
			s-3.768-4.213-8.387-4.213c-4.619,0-8.387,1.893-8.387,4.213S67.193,206.305,71.812,206.305z"/>
		<path style="fill-rule:evenodd;clip-rule:evenodd;fill:#F5F0F0;" d="M49.718,206.305c4.62,0,8.387-1.892,8.387-4.212
			s-3.768-4.213-8.387-4.213c-4.619,0-8.387,1.893-8.387,4.213S45.099,206.305,49.718,206.305z"/>
		<path style="fill-rule:evenodd;clip-rule:evenodd;fill:#E7B791;" d="M107.293,120.798c1.152,1.017,1.005,1.874,0.045,2.386
			c1.885,1.278,2.249,3.663,1.458,4.56c-1.539,1.743-4.708,1.462-7.078-0.63c-2.37-2.091-3.043-5.2-1.504-6.944
			C101.755,118.424,104.923,118.706,107.293,120.798z"/>
		<path style="fill-rule:evenodd;clip-rule:evenodd;fill:#F5F0F0;" d="M51.44,118.734l-3.263-21.567
			c-0.058-0.265-0.088-0.535-0.088-0.812c0-2.803,3.082-5.075,6.884-5.075c2.481,0,4.656,0.968,5.867,2.42
			c1.211-1.452,3.386-2.42,5.868-2.42c3.802,0,6.884,2.272,6.884,5.075c0,0.268-0.028,0.529-0.082,0.785l-3.19,21.594H51.44z"/>
		<path style="fill-rule:evenodd;clip-rule:evenodd;fill:#F5F0F0;" d="M60.84,116.272c24.945,0,45.366,30.694,47.061,69.56
			c-12.914,10.177-29.269,16.262-47.061,16.262c-17.793,0-34.147-6.085-47.062-16.262C15.474,146.966,35.894,116.272,60.84,116.272z
			"/>
		<path style="fill-rule:evenodd;clip-rule:evenodd;fill:#E7B791;" d="M3.428,86.195c-1.538,0.026-1.981,0.774-1.582,1.786
			c-2.264-0.25-1.817,2.603-1.796,3.798c0.041,2.326,0.365,2.895,3.525,2.839c3.16-0.056,5.689-1.985,5.648-4.312
			C9.183,87.981,6.588,86.14,3.428,86.195z"/>
		<path style="fill-rule:evenodd;clip-rule:evenodd;fill:#E7B791;" d="M29.928,93.252c-4.563,0.316-17.803-2.523-21.995-4.162
			l-0.786,3.782c3.938,2.603,19.686,6.777,24.412,7.658L29.928,93.252z"/>
		<path style="fill-rule:evenodd;clip-rule:evenodd;fill:#E7B791;" d="M45.502,86.271c-3.848,1.925-11.364,6.045-16.53,7.361
			l2.298,6.746c4.883-0.336,10.927-3.128,13.796-4.104C53.093,93.542,53.923,82.061,45.502,86.271z"/>
		<g>
			<path style="fill-rule:evenodd;clip-rule:evenodd;fill:#F5F0F0;" d="M6.46,71.53c0.092,0.986,0.142,2.035,0.142,3.123
				c0,5.781-1.404,10.468-3.137,10.468c-1.732,0-3.136-4.686-3.136-10.468c0-1.088,0.05-2.137,0.142-3.123H6.46z"/>
			<rect x="3.124" y="81.187" style="fill-rule:evenodd;clip-rule:evenodd;fill:#F5F0F0;" width="0.684" height="14.701"/>
			<path style="fill-rule:evenodd;clip-rule:evenodd;fill:#F5F0F0;" d="M5.753,96.962c0.08-1.53-4.654-1.53-4.574,0H5.753z"/>
		</g>
		<path style="fill-rule:evenodd;clip-rule:evenodd;fill:#E7B791;" d="M2.463,94.422c1.124,0,2.04-1.366,2.04-3.041
			c0-1.675-0.916-3.04-2.04-3.04c-1.123,0-2.039,1.365-2.039,3.04C0.423,93.056,1.34,94.422,2.463,94.422z"/>
		<g>
			<path style="fill-rule:evenodd;clip-rule:evenodd;fill:#F5F0F0;" d="M227.245,63.637c0.092,0.986,0.142,2.035,0.142,3.123
				c0,5.781-1.404,10.468-3.136,10.468c-1.732,0-3.136-4.687-3.136-10.468c0-1.088,0.049-2.137,0.142-3.123H227.245z"/>
			<rect x="223.908" y="73.293" style="fill-rule:evenodd;clip-rule:evenodd;fill:#F5F0F0;" width="0.684" height="14.701"/>
			<path style="fill-rule:evenodd;clip-rule:evenodd;fill:#F5F0F0;" d="M226.537,89.069c0.08-1.53-4.654-1.53-4.574,0H226.537z"/>
		</g>
		<path style="fill-rule:evenodd;clip-rule:evenodd;fill:#E7B791;" d="M224.067,86.739c1.346,0,2.444-1.597,2.444-3.555
			s-1.098-3.555-2.444-3.555c-1.346,0-2.444,1.597-2.444,3.555S222.721,86.739,224.067,86.739z"/>
		<g>
			
				<ellipse transform="matrix(0.2327 -0.9726 0.9726 0.2327 96.3773 221.8763)" style="fill-rule:evenodd;clip-rule:evenodd;fill:#E7B791;" cx="188.8" cy="49.86" rx="5.78" ry="3.699"/>
			
				<ellipse transform="matrix(-0.2188 -0.9758 0.9758 -0.2188 118.4027 188.8853)" style="fill-rule:evenodd;clip-rule:evenodd;fill:#E7B791;" cx="134.813" cy="47.046" rx="5.78" ry="3.699"/>
			
				<ellipse transform="matrix(0.0071 -1 1 0.0071 109.2622 211.9007)" style="fill-rule:evenodd;clip-rule:evenodd;fill:#E7B791;" cx="161.34" cy="50.928" rx="20.796" ry="26.979"/>
			
				<ellipse transform="matrix(0.0072 -1 1 0.0072 103.1967 201.6589)" style="fill-rule:evenodd;clip-rule:evenodd;fill:#323232;" cx="153.153" cy="48.86" rx="2.624" ry="1.499"/>
			
				<ellipse transform="matrix(0.0071 -1 1 0.0071 119.3814 218.1819)" style="fill-rule:evenodd;clip-rule:evenodd;fill:#323232;" cx="169.556" cy="48.977" rx="2.624" ry="1.499"/>
			<path style="fill-rule:evenodd;clip-rule:evenodd;fill:#5E3A1D;" d="M182.06,31.767c-13.369-0.647-35.036,20.406-48.678,14.757
				c2.693-16.434,19.672-25.547,34.037-23.051C172.722,24.394,177.558,26.111,182.06,31.767z"/>
			<path style="fill-rule:evenodd;clip-rule:evenodd;fill:#5E3A1D;" d="M171.966,26.072c-2.77,11.327,8.243,23.982,16.834,23.788
				C190.258,40.51,181.881,27.854,171.966,26.072z"/>
			<path style="fill-rule:evenodd;clip-rule:evenodd;fill:#C79369;" d="M170.188,58.721c-3.886,0.724-13.385,0.59-17.806-0.127
				C156.913,64.116,166.501,64.375,170.188,58.721z"/>
			<path style="fill-rule:evenodd;clip-rule:evenodd;fill:#5E3A1D;" d="M182.057,32.247c-18.81-4.429-44.35,19.403-51.621-2.323
				c9.324,3.586,10.38,0.113,19.267-4.54C158.666,20.692,172.044,19.67,182.057,32.247z"/>
			<path style="fill-rule:evenodd;clip-rule:evenodd;fill:#5E3A1D;" d="M184.382,36.943c-16.974-9.235-47.898,7.014-49.179-15.861
				c8.047,5.919,9.982,2.848,19.782,0.705C164.87,19.624,178.043,22.169,184.382,36.943z"/>
		</g>
		<g>
			<path style="fill-rule:evenodd;clip-rule:evenodd;fill:#5E3A1D;" d="M61.052,59.894c8.547,0,15.518-6.901,15.518-15.362
				c0-8.462-6.971-15.362-15.518-15.362s-15.518,6.9-15.518,15.362C45.534,52.992,52.505,59.894,61.052,59.894z"/>
			<ellipse style="fill-rule:evenodd;clip-rule:evenodd;fill:#F5F0F0;" cx="61.052" cy="47.912" rx="17.54" ry="11.981"/>
			<ellipse style="fill-rule:evenodd;clip-rule:evenodd;fill:#5E3A1D;" cx="61.052" cy="49.013" rx="19.508" ry="10.88"/>
			<ellipse style="fill-rule:evenodd;clip-rule:evenodd;fill:#E7B791;" cx="60.925" cy="60.877" rx="22.062" ry="19.555"/>
			<g>
				<ellipse style="fill-rule:evenodd;clip-rule:evenodd;fill:#323232;" cx="68.637" cy="60.316" rx="1.41" ry="2.467"/>
				<ellipse style="fill-rule:evenodd;clip-rule:evenodd;fill:#323232;" cx="53.213" cy="60.316" rx="1.41" ry="2.467"/>
			</g>
			<path style="fill-rule:evenodd;clip-rule:evenodd;fill:#C79369;" d="M69.798,68.254c-3.868,0.749-13.336,0.683-17.747,0
				C56.606,73.726,66.164,73.916,69.798,68.254z"/>
			
				<ellipse transform="matrix(-0.2257 -0.9742 0.9742 -0.2257 -12.1088 112.1302)" style="fill-rule:evenodd;clip-rule:evenodd;fill:#E7B791;" cx="38.506" cy="60.877" rx="5.761" ry="3.687"/>
			
				<ellipse transform="matrix(0.2257 -0.9742 0.9742 0.2257 4.8249 128.3581)" style="fill-rule:evenodd;clip-rule:evenodd;fill:#E7B791;" cx="83.161" cy="61.144" rx="5.761" ry="3.687"/>
			<g>
				<path style="fill-rule:evenodd;clip-rule:evenodd;fill:#5E3A1D;" d="M65.875,40.485c10.675,6.343,14.639,22.517,21.089,20.562
					C86.325,48.138,74.819,38.624,65.875,40.485z"/>
				<path style="fill-rule:evenodd;clip-rule:evenodd;fill:#5E3A1D;" d="M77.246,43.285c-17.561-0.955-28.43,22.896-42.588,16.979
					C36.037,41.047,57.943,32.595,77.246,43.285z"/>
			</g>
		</g>
	</g>
</g>
<g>
</g>
<g>
</g>
<g>
</g>
<g>
</g>
<g>
</g>
<g>
</g>
<g>
</g>
<g>
</g>
<g>
</g>
<g>
</g>
<g>
</g>
<g>
</g>
<g>
</g>
<g>
</g>
<g>
</g>
</svg>
