<svg height="512pt" viewBox="-96 0 512 512" width="512pt" xmlns="http://www.w3.org/2000/svg"><path d="m144.019531 272h32v240h-32zm0 0" fill="#aa854b"/><path d="m135.605469 480.015625c-27.761719 0-72.128907-5.167969-101.28125-34.320313-44.175781-44.175781-33.261719-123.296874-32.785157-126.640624l1.714844-11.808594 11.808594-1.710938c3.359375-.480468 82.445312-11.40625 126.636719 32.785156 44.175781 44.175782 33.265625 123.296876 32.785156 126.640626l-1.710937 11.808593-11.808594 1.710938c-1.136719.160156-11.039063 1.535156-25.359375 1.535156zm0 0" fill="#8eb259"/><path d="m141.714844 338.304688c-.796875-.800782-1.679688-1.441407-2.496094-2.207032-24.703125 37.628906-27.871094 83.390625-27.117188 110.636719-25.554687-2.832031-55.9375-11.199219-77.792968-33.054687-24.128906-24.128907-31.777344-58.625-33.710938-85.566407-1.695312 22.605469-2.207031 81.648438 33.726563 117.582031 29.152343 29.152344 73.503906 34.320313 101.28125 34.320313 14.320312 0 24.222656-1.375 25.359375-1.535156l11.808594-1.710938 1.710937-11.808593c.496094-3.359376 11.410156-82.480469-32.769531-126.65625zm0 0" fill="#7ea33d"/><path d="m184.4375 480.015625c-14.320312 0-24.226562-1.375-25.359375-1.535156l-11.808594-1.710938-1.710937-11.808593c-.480469-3.34375-11.394532-82.464844 32.78125-126.640626 44.175781-44.191406 123.296875-33.265624 126.640625-32.785156l11.808593 1.710938 1.710938 11.808594c.480469 3.34375 11.394531 82.464843-32.785156 126.640624-29.148438 29.152344-73.503906 34.320313-101.277344 34.320313zm0 0" fill="#8eb259"/><path d="m285.714844 413.695312c-29.148438 29.152344-73.503906 34.320313-101.277344 34.320313-14.320312 0-24.226562-1.375-25.359375-1.535156l-11.808594-1.710938-1.710937-11.808593c-.097656-.625-.546875-3.90625-.929688-9.074219-1.601562 22.386719.71875 39.554687.929688 41.074219l1.710937 11.808593 11.808594 1.710938c1.132813.160156 11.039063 1.535156 25.359375 1.535156 27.757812 0 72.128906-5.167969 101.277344-34.320313 35.9375-35.933593 35.425781-94.976562 33.714844-117.566406-1.9375 26.941406-9.585938 61.4375-33.714844 85.566406zm0 0" fill="#7ea33d"/><path d="m32.019531 336h32v32h-32zm0 0" fill="#fff"/><path d="m256.019531 336h32v32h-32zm0 0" fill="#fff"/><path d="m144.019531 318.769531c5.25.75 10.578125 1.230469 16 1.230469 5.425781 0 10.753907-.480469 16-1.230469v-46.769531h-32zm0 0" fill="#916e40"/><path d="m160.019531 288c-39.101562 0-71.742187-28.207031-78.65625-65.34375-37.132812-6.914062-65.34375-39.550781-65.34375-78.65625s28.210938-71.742188 65.34375-78.65625c6.914063-37.136719 39.554688-65.34375 78.65625-65.34375 39.105469 0 71.746094 28.207031 78.65625 65.34375 37.136719 6.914062 65.34375 39.550781 65.34375 78.65625s-28.207031 71.742188-65.34375 78.65625c-6.910156 37.136719-39.550781 65.34375-78.65625 65.34375zm0 0" fill="#ffcb5a"/><path d="m144.019531 128h32v32h-32zm0 0" fill="#fff"/></svg>