<svg id="Layer_1" enable-background="new 0 0 512.008 512.008" height="512" viewBox="0 0 512.008 512.008" width="512" xmlns="http://www.w3.org/2000/svg"><g><g fill="#acebe2"><path d="m115.653 319.224c-10.33 18.48-20.91 33.42-21.36 34.04-2.63 3.71-6.71 6.12-11.22 6.64-.61.07-1.22.1-1.82.1-3.89 0-7.68-1.42-10.62-4.03-.57-.51-14.25-12.68-28.48-28.35-20.93-23.05-31.91-41.31-33.57-55.84-1.66-14.52 4.92-34.79 20.1-61.96 10.33-18.48 20.91-33.42 21.36-34.05 2.63-3.7 6.71-6.12 11.22-6.63 4.52-.52 9.04.91 12.44 3.93.58.51 14.25 12.67 28.48 28.35 20.93 23.04 31.91 41.31 33.57 55.83s-4.91 34.79-20.1 61.97z"/><path d="m267.334 158.186c-10.33 18.48-20.91 33.42-21.36 34.05-2.63 3.7-6.71 6.12-11.22 6.63-.61.07-1.22.11-1.82.11-3.89 0-7.68-1.43-10.62-4.04-.57-.51-14.25-12.67-28.48-28.35-20.93-23.04-31.91-41.31-33.57-55.83s4.92-34.79 20.1-61.97c10.33-18.48 20.91-33.42 21.36-34.04 2.63-3.71 6.71-6.12 11.22-6.64 4.52-.51 9.04.92 12.44 3.93.58.51 14.25 12.68 28.48 28.35 20.93 23.05 31.91 41.31 33.57 55.84 1.66 14.52-4.91 34.79-20.1 61.96z"/><path d="m367.754 305.254c-.8 4.48-3.46 8.4-7.33 10.79-.65.4-16.23 10.02-35.33 19.16-23.49 11.25-41.78 16.78-55.55 16.78-2.69 0-5.21-.21-7.56-.63-14.39-2.57-31.92-14.68-53.6-37.02-14.74-15.2-26.02-29.62-26.5-30.22-2.79-3.58-3.93-8.19-3.13-12.66s3.46-8.39 7.33-10.79c.65-.4 16.23-10.01 35.32-19.16 28.08-13.44 48.72-18.73 63.12-16.15 14.39 2.57 31.92 14.69 53.6 37.03 14.74 15.19 26.02 29.61 26.5 30.21 2.79 3.59 3.93 8.19 3.13 12.66z"/><path d="m511.044 183.63c-1.54 4.28-4.83 7.69-9.05 9.39-.71.29-17.69 7.12-38.06 12.9-18.83 5.33-34.22 7.99-46.46 7.99-7.24 0-13.37-.93-18.48-2.78-13.74-4.97-28.97-19.88-46.55-45.57-11.95-17.48-20.62-33.6-20.99-34.28-2.14-4-2.49-8.73-.94-13s4.84-7.69 9.05-9.39c.71-.29 17.69-7.12 38.07-12.89 29.95-8.49 51.19-10.2 64.93-5.22 6.88 2.48 14.12 7.46 21.84 15.02s15.92 17.71 24.71 30.56c11.96 17.47 20.63 33.59 20.99 34.27 2.15 4 2.49 8.73.94 13z"/></g><path d="m96.274 350.424c-1.16 1.69-1.87 2.69-1.98 2.84-2.63 3.71-6.71 6.12-11.22 6.64-.61.07-1.22.1-1.82.1-3.89 0-7.68-1.42-10.62-4.03-.57-.51-14.25-12.68-28.48-28.35-20.93-23.05-31.91-41.31-33.57-55.84-1.66-14.52 4.92-34.79 20.1-61.96 10.33-18.48 20.91-33.42 21.36-34.05 2.63-3.7 6.71-6.12 11.22-6.63 4.52-.52 9.04.91 12.44 3.93.23.2 2.49 2.21 6.03 5.55-3.6 5.26-11.56 17.22-19.38 31.2-15.18 27.17-21.76 47.44-20.1 61.96 1.66 14.53 12.64 32.79 33.57 55.84 8.61 9.49 17.03 17.69 22.45 22.8z" fill="#98d7ce"/><path d="m248.074 189.194c-1.23 1.81-1.98 2.88-2.1 3.04-2.63 3.7-6.71 6.12-11.22 6.63-.61.07-1.22.11-1.82.11-3.89 0-7.68-1.43-10.62-4.04-.57-.51-14.25-12.67-28.48-28.35-20.93-23.04-31.91-41.31-33.57-55.83s4.92-34.79 20.1-61.97c10.33-18.48 20.91-33.42 21.36-34.04 2.63-3.71 6.71-6.12 11.22-6.64 4.52-.51 9.04.92 12.44 3.93.23.2 2.58 2.3 6.23 5.74-3.67 5.35-11.54 17.19-19.26 31.01-15.18 27.18-21.76 47.45-20.1 61.97s12.64 32.79 33.57 55.83c8.51 9.38 16.82 17.49 22.25 22.61z" fill="#98d7ce"/><path d="m367.754 305.254c-.6 3.36-2.24 6.4-4.65 8.72-3.59-4.48-13.18-16.15-24.98-28.31-21.68-22.34-39.21-34.46-53.6-37.03-14.4-2.58-35.04 2.71-63.12 16.15-19.09 9.15-34.67 18.76-35.32 19.16-.97.6-1.87 1.3-2.68 2.08-.9-1.12-1.42-1.79-1.52-1.91-2.79-3.58-3.93-8.19-3.13-12.66s3.46-8.39 7.33-10.79c.65-.4 16.23-10.01 35.32-19.16 28.08-13.44 48.72-18.73 63.12-16.15 14.39 2.57 31.92 14.69 53.6 37.03 14.74 15.19 26.02 29.61 26.5 30.21 2.79 3.59 3.93 8.19 3.13 12.66z" fill="#98d7ce"/><path d="m511.044 183.634c-1.27 3.54-3.75 6.49-6.96 8.36-3.72-6.32-8.93-14.8-14.97-23.63-8.79-12.85-16.99-23-24.71-30.56s-14.96-12.54-21.84-15.02c-13.74-4.98-34.98-3.27-64.93 5.22-20.38 5.77-37.36 12.6-38.07 12.89-.72.29-1.42.63-2.08 1.03-3.63-6.19-5.84-10.3-6.03-10.64-2.14-4-2.49-8.73-.94-13s4.84-7.69 9.05-9.39c.71-.29 17.69-7.12 38.07-12.89 29.95-8.49 51.19-10.2 64.93-5.22 6.88 2.48 14.12 7.46 21.84 15.02s15.92 17.71 24.71 30.56c11.96 17.47 20.63 33.59 20.99 34.27 2.15 4 2.49 8.73.94 13z" fill="#98d7ce"/><path d="m15.993 512.008c-2.306 0-4.647-.501-6.868-1.558-7.978-3.799-11.366-13.347-7.567-21.325 37.111-77.934 85.842-152.064 144.84-220.333 47.13-54.536 100.883-105.476 159.766-151.404 100.364-78.284 179.936-114.472 183.274-115.974 8.059-3.627 17.53-.034 21.157 8.025 3.625 8.056.036 17.525-8.019 21.154-.789.356-80.049 36.481-177.507 112.633-89.62 70.028-213.482 189.27-294.62 359.658-2.741 5.757-8.477 9.124-14.456 9.124z" fill="#b59f89"/></g></svg>