<svg id="Layer_1" enable-background="new 0 0 512.006 512.006" height="512" viewBox="0 0 512.006 512.006" width="512" xmlns="http://www.w3.org/2000/svg"><g><path d="m381.15 69.932c-.75 11.19-2.74 22.34-5.94 33.12-1.35 4.57-4.67 8.3-9.05 10.17-2.01.86-4.15 1.29-6.29 1.29-2.51 0-5.02-.59-7.31-1.77l-17.9-9.19-26.82-13.76-22.72-11.67c-5.33-2.74-8.69-8.23-8.69-14.23v-.01c0-3.44 1.11-6.79 3.16-9.55 18.63-25.02 44.09-43.52 73.63-53.49 8.37-2.82 17.45 1.67 20.28 10.04 6.44 19.07 9.01 38.941 7.65 59.05z" fill="#f8e9d2"/><path d="m184.29 360.492c-.5.67-.97 1.28-1.44 1.87-.51.64-1.01 1.25-1.53 1.85-10.93 12.7-26.37 19.8-42.43 19.8-2.63 0-5.27-.19-7.92-.58-17.83-2.61-32.85-13.95-40.16-30.33-15.96-35.72-18.44-57.47-8.07-70.51 10.39-13.03 32.14-15.45 70.54-7.87 8.8 1.74 16.8 5.63 23.42 11.19 6.61 5.56 11.84 12.79 15.11 21.19 6.87 17.711 4.06 37.67-7.52 53.39z" fill="#acebe2"/><path d="m163.512 512.006c-1.284 0-2.59-.156-3.893-.481-8.561-2.141-13.771-10.808-11.649-19.369.077-.316 7.855-32.721 15.586-125.482 5.952-71.424 43.49-120.561 61.53-144.175 5.363-7.022 15.405-8.365 22.427-3.001 7.022 5.365 8.366 15.406 3.001 22.428-16.194 21.199-49.895 65.311-55.069 127.405-8.016 96.187-16.083 129.194-16.422 130.552-1.818 7.27-8.342 12.123-15.511 12.123z" fill="#84c3ba"/><path d="m433.84 115.902-42.62 86.02c-19.29 38.91-58.68 62.32-100.34 62.32-10.12 0-20.37-1.38-30.51-4.26-6.55-1.85-13.03-4.35-19.23-7.42-4.19-2.08-8.28-4.43-12.17-7.01-3.02-2-5.94-4.13-8.74-6.41-5.02-4.06-9.67-8.56-13.91-13.44-.17-.19-.34-.38-.5-.57-3.63-4.24-6.91-8.71-9.85-13.39-4.64-7.41-8.4-15.35-11.23-23.75-9.57-28.33-7.52-58.71 5.76-85.52l42.62-86.01c2-4.03 5.6-7.03 9.92-8.28 4.32-1.24 8.96-.61 12.79 1.75 1.15.7 28.38 17.58 49.18 44.07 4.89 6.23 9.05 12.5 12.46 18.79 3.12 5.73 5.62 11.47 7.5 17.22 10.71-4.03 21.96-6.53 33.64-7.45 4.42-.35 8.73-.47 12.89-.39 31.08.58 54.02 11.75 55.1 12.29 3.81 1.89 6.7 5.2 8.06 9.22 1.36 4.03 1.06 8.421-.82 12.22z" fill="#f79caf"/><path d="m433.84 115.902-42.62 86.02c-19.29 38.91-58.68 62.32-100.34 62.32-10.12 0-20.37-1.38-30.51-4.26-6.19-1.75-12.31-4.07-18.19-6.92 8.47 1.98 16.98 2.94 25.4 2.94 41.66 0 81.05-23.41 100.34-62.32l42.62-86.02c1.88-3.8 2.18-8.19.82-12.22-1.28-3.77-3.89-6.91-7.36-8.85 13.43 3.4 21.95 7.55 22.6 7.87 3.81 1.89 6.7 5.2 8.06 9.22 1.36 4.03 1.06 8.421-.82 12.22z" fill="#e3889b"/><path d="" stroke="#000" stroke-linecap="round" stroke-linejoin="round" stroke-miterlimit="10" stroke-width="32"/><path d="m242.975 200.006c-1.11 0-2.238-.116-3.368-.358-8.641-1.852-14.144-10.357-12.292-18.998 12.138-56.644 63.309-80.849 65.48-81.851 8.02-3.703 17.528-.202 21.232 7.822 3.694 8.004.218 17.484-7.765 21.206-.669.32-38.968 18.971-47.659 59.528-1.608 7.51-8.245 12.65-15.628 12.651z" fill="#e3889b"/></g></svg>