<?xml version="1.0" encoding="iso-8859-1"?>
<!-- Generator: Adobe Illustrator 19.0.0, SVG Export Plug-In . SVG Version: 6.00 Build 0)  -->
<svg version="1.1" id="Capa_1" xmlns="http://www.w3.org/2000/svg" xmlns:xlink="http://www.w3.org/1999/xlink" x="0px" y="0px"
	 viewBox="0 0 511.997 511.997" style="enable-background:new 0 0 511.997 511.997;" xml:space="preserve">
<g>
	<g>
		<path d="M205.956,169.673c-4.324,0-7.829,3.505-7.829,7.829v14.824c0,4.324,3.505,7.829,7.829,7.829
			c4.324,0,7.829-3.505,7.829-7.829v-14.824C213.784,173.178,210.279,169.673,205.956,169.673z"/>
	</g>
</g>
<g>
	<g>
		<path d="M306.042,169.673c-4.324,0-7.829,3.505-7.829,7.829v14.824c0,4.324,3.505,7.829,7.829,7.829
			c4.324,0,7.829-3.505,7.829-7.829v-14.824C313.87,173.178,310.365,169.673,306.042,169.673z"/>
	</g>
</g>
<g>
	<g>
		<path d="M288.154,242.611c-3.509-2.525-8.402-1.728-10.927,1.781c-3.986,5.539-12.319,9.118-21.228,9.118
			s-17.242-3.579-21.228-9.118c-2.525-3.51-7.417-4.307-10.927-1.781s-4.307,7.418-1.781,10.927
			c6.938,9.641,19.941,15.63,33.936,15.63s26.999-5.989,33.936-15.63C292.459,250.029,291.662,245.136,288.154,242.611z"/>
	</g>
</g>
<g>
	<g>
		<path d="M414.862,353.003c-3.856-1.447-8.158,0.505-9.606,4.362s0.505,8.158,4.362,9.606
			c32.361,12.148,54.103,43.551,54.103,78.142v50.613c0,0.746-0.607,1.353-1.353,1.353h-57.092V457.69
			c0-4.324-3.505-7.829-7.829-7.829c-4.324,0-7.829,3.505-7.829,7.829v39.389H294.29l67.19-87.667
			c5.078-6.626,5.701-15.601,1.587-22.864l-22.779-40.222l34.617,10.193c3.952,1.164,8.1-1.097,9.263-5.05
			c1.164-3.952-1.097-8.099-5.05-9.263l-52.203-15.37c-0.073-0.022-0.147-0.042-0.221-0.062c-0.026-0.007-0.053-0.013-0.079-0.02
			c-0.139-0.036-0.277-0.075-0.419-0.104l-12.728-2.558c-5.527-1.111-9.538-6.009-9.538-11.646v-9.591
			c34.658-14.641,61.287-44.661,71.306-81.456h5.289c14.345,0,26.015-11.671,26.015-26.015v-20.562
			c0-3.868-0.855-7.539-2.376-10.841v-35.57C404.165,57.605,346.561,0,275.755,0h-39.514c-33.321,0-64.905,12.707-88.932,35.78
			c-2.972,2.854-3.068,7.576-0.214,10.548c2.853,2.972,7.576,3.068,10.548,0.214c21.235-20.392,49.148-31.622,78.598-31.622h39.514
			c62.579,0,113.49,50.911,113.49,113.49v21.904c-1.344-0.479-2.738-0.848-4.173-1.102c-0.055-0.01-0.11-0.02-0.166-0.03
			c-0.668-0.114-1.344-0.203-2.027-0.265c-0.094-0.009-0.189-0.014-0.283-0.022c-0.684-0.054-1.372-0.09-2.07-0.09h-1.188
			c-0.015-0.255-0.038-0.51-0.055-0.765c-0.006-0.084-0.01-0.168-0.016-0.252c-0.007-0.097-0.016-0.194-0.023-0.29
			c-0.058-0.818-0.122-1.634-0.196-2.45c-0.003-0.029-0.004-0.058-0.007-0.087l-0.072-0.813c-0.015-0.151-0.036-0.305-0.052-0.456
			c-0.09-0.886-0.191-1.77-0.3-2.654c-0.029-0.23-0.054-0.459-0.083-0.69c-0.17-1.313-0.361-2.623-0.573-3.929l-0.064-0.383
			c-0.014-0.085-0.031-0.169-0.045-0.254c-0.136-0.812-0.278-1.623-0.43-2.431c-0.003-0.017-0.006-0.034-0.009-0.052l-0.18-0.942
			c-0.021-0.106-0.045-0.212-0.066-0.317c-0.149-0.747-0.306-1.493-0.469-2.238c-0.026-0.12-0.049-0.238-0.075-0.359l-0.129-0.591
			c-0.018-0.077-0.038-0.153-0.056-0.23c-0.257-1.123-0.525-2.243-0.814-3.357c0-0.001,0-0.001,0-0.002
			c-0.861-3.32-3.896-5.665-7.305-5.587l-0.302,0.003c-1.31,0.015-2.593,0.374-3.72,1.042c-4.407,2.612-9.235,4.829-14.454,6.661
			c-12.091,4.245-26.318,6.395-42.515,6.395c-23.397,0-46.645-7.286-69.127-14.333c-6.117-1.917-12.276-3.845-18.467-5.634
			c-24.606-7.11-49.715-11.986-74.707-4.903c-1.72,0.487-3.188,1.569-4.163,3.024c-0.325,0.485-0.596,1.011-0.802,1.57
			c-0.432,1.169-0.85,2.38-1.267,3.633c-0.114,0.341-0.23,0.68-0.341,1.022c-0.014,0.044-0.029,0.085-0.043,0.13l-0.145,0.445
			c-0.296,0.926-0.58,1.869-0.857,2.817c-0.122,0.416-0.24,0.833-0.357,1.25c-0.063,0.224-0.13,0.446-0.192,0.67l-0.137,0.507
			c-0.158,0.584-0.304,1.157-0.451,1.732c-0.119,0.467-0.237,0.934-0.351,1.403c-0.145,0.594-0.291,1.19-0.423,1.772l-0.047,0.215
			c-0.075,0.331-0.14,0.657-0.212,0.987c-0.091,0.42-0.184,0.84-0.271,1.261c-0.196,0.95-0.381,1.89-0.548,2.807
			c-0.006,0.034-0.013,0.068-0.019,0.101c-0.047,0.26-0.092,0.526-0.138,0.79c-0.03,0.175-0.061,0.351-0.09,0.526
			c-0.187,1.119-0.366,2.291-0.542,3.547c-0.068,0.49-0.132,0.981-0.194,1.472c-0.112,0.883-0.215,1.781-0.311,2.693
			c-0.054,0.514-0.11,1.027-0.158,1.542l-0.062,0.697c-0.081,0.93-0.149,1.846-0.208,2.749c-0.011,0.178-0.031,0.356-0.042,0.534
			h-1.187c-0.697,0-1.386,0.036-2.07,0.09c-0.094,0.008-0.189,0.013-0.283,0.022c-0.684,0.062-1.36,0.151-2.027,0.265
			c-0.055,0.009-0.11,0.02-0.166,0.03c-1.434,0.254-2.829,0.622-4.173,1.102v-21.904c0-19.123,4.844-38.027,14.008-54.666
			c1.987-3.609,0.673-8.146-2.936-10.134c-3.61-1.988-8.146-0.673-10.134,2.936c-10.374,18.838-15.858,40.23-15.858,61.864v35.57
			c-1.521,3.303-2.376,6.973-2.376,10.841v20.562c0,14.345,11.671,26.015,26.015,26.015h5.289
			c9.796,35.975,35.471,65.468,69.002,80.45v11.061c0,5.637-4.011,10.535-9.538,11.646l-10.423,2.095
			c-0.142,0.028-0.279,0.067-0.417,0.103c-0.027,0.007-0.054,0.013-0.081,0.02c-0.074,0.02-0.148,0.04-0.221,0.062l-81.117,23.884
			c-20.541,6.048-38.177,18.308-51.003,35.454c-12.825,17.146-19.605,37.527-19.605,58.94v50.613c0,8.973,7.3,16.273,16.273,16.273
			h412.74c8.973,0,16.273-7.3,16.273-16.273v-50.613C478.641,404.341,453.01,367.324,414.862,353.003z M378.375,206.077
			c0.171-1.231,0.327-2.468,0.461-3.711c0.012-0.112,0.027-0.223,0.038-0.335c0.143-1.36,0.264-2.726,0.363-4.098
			c0.015-0.212,0.026-0.423,0.04-0.635c0.075-1.117,0.134-2.238,0.179-3.363c0.013-0.334,0.027-0.667,0.038-1.001
			c0.042-1.318,0.07-2.64,0.07-3.968v-25.238h0.961c0.458,0,0.91,0.036,1.358,0.092c0.112,0.014,0.221,0.034,0.332,0.051
			c0.361,0.056,0.719,0.128,1.07,0.219c0.086,0.022,0.172,0.042,0.257,0.066c0.883,0.252,1.729,0.61,2.519,1.067
			c0.052,0.03,0.103,0.063,0.155,0.094c0.351,0.211,0.69,0.441,1.017,0.69c0.047,0.035,0.095,0.069,0.141,0.105
			c0.72,0.567,1.371,1.226,1.938,1.964c0.045,0.059,0.09,0.119,0.134,0.179c0.268,0.363,0.52,0.741,0.745,1.139
			c0.906,1.606,1.428,3.456,1.428,5.427v20.562c0,6.118-4.977,11.095-11.095,11.095h-2.201
			C378.344,206.345,378.357,206.211,378.375,206.077z M131.47,206.481v-0.002c-6.118,0-11.095-4.977-11.095-11.095v-20.562
			c0-1.972,0.523-3.821,1.428-5.427c0.225-0.399,0.477-0.776,0.745-1.139c0.044-0.06,0.088-0.12,0.134-0.179
			c0.567-0.738,1.218-1.398,1.938-1.964c0.046-0.036,0.094-0.07,0.141-0.105c0.326-0.249,0.666-0.479,1.017-0.69
			c0.052-0.031,0.103-0.064,0.155-0.094c0.79-0.457,1.636-0.815,2.519-1.067c0.085-0.024,0.172-0.044,0.257-0.066
			c0.352-0.091,0.709-0.163,1.07-0.219c0.111-0.017,0.22-0.037,0.332-0.051c0.448-0.056,0.901-0.092,1.358-0.092h0.961v25.238
			c0,1.328,0.028,2.65,0.07,3.968c0.011,0.334,0.025,0.667,0.038,1.001c0.045,1.125,0.104,2.246,0.179,3.363
			c0.014,0.212,0.025,0.423,0.04,0.635c0.099,1.372,0.22,2.739,0.363,4.098c0.012,0.112,0.026,0.223,0.038,0.335
			c0.135,1.243,0.29,2.479,0.461,3.711c0.019,0.134,0.031,0.269,0.05,0.403H131.47z M323.911,365.903l3.306-12.384l22.87,40.383
			c1.158,2.044,0.983,4.57-0.447,6.435l-53.591,69.923l23.24-87.045L323.911,365.903z M314.198,344.442l-6.922,25.926
			l-30.722-16.036L314.198,344.442z M298.733,333.078l-42.735,11.228l-36.952-9.709l-7.144-1.877
			c5.43-4.954,8.779-12.073,8.779-19.81v-5.499c0.491,0.146,0.988,0.272,1.48,0.412c0.059,0.017,0.118,0.033,0.177,0.049
			c1.822,0.515,3.654,0.989,5.496,1.419c0.121,0.028,0.24,0.059,0.361,0.086c0.841,0.194,1.684,0.376,2.53,0.552
			c0.378,0.079,0.758,0.154,1.138,0.229c1.247,0.247,2.499,0.475,3.754,0.683c0.584,0.097,1.167,0.198,1.753,0.287
			c0.648,0.098,1.298,0.186,1.948,0.273c0.688,0.093,1.378,0.18,2.07,0.262c0.563,0.066,1.126,0.135,1.69,0.194
			c1.197,0.125,2.399,0.234,3.605,0.324c0.377,0.028,0.755,0.047,1.133,0.072c0.993,0.065,1.989,0.119,2.988,0.161
			c0.4,0.017,0.8,0.033,1.201,0.046c1.326,0.042,2.656,0.071,3.993,0.071c1.264,0,2.521-0.025,3.776-0.063
			c0.399-0.012,0.798-0.03,1.197-0.046c0.876-0.035,1.75-0.079,2.621-0.132c0.443-0.027,0.886-0.053,1.329-0.085
			c0.955-0.068,1.907-0.15,2.856-0.24c0.521-0.049,1.042-0.102,1.562-0.158c0.917-0.099,1.831-0.205,2.742-0.324
			c0.59-0.077,1.177-0.163,1.765-0.248c0.6-0.087,1.2-0.178,1.797-0.274c0.646-0.103,1.291-0.208,1.935-0.322
			c0.496-0.088,0.988-0.184,1.482-0.278c1.342-0.254,2.679-0.53,4.011-0.828c0.322-0.072,0.646-0.141,0.967-0.215
			c0.798-0.185,1.592-0.382,2.386-0.584c0.299-0.076,0.597-0.153,0.895-0.232c0.563-0.147,1.13-0.282,1.691-0.438v4.378
			C289.011,320.622,292.75,328.108,298.733,333.078z M149.695,211.442c-0.086-0.41-0.171-0.819-0.252-1.23
			c-0.092-0.462-0.181-0.925-0.267-1.389c-0.096-0.52-0.188-1.04-0.276-1.562c-0.065-0.38-0.129-0.759-0.189-1.14
			c-0.097-0.611-0.187-1.223-0.274-1.836c-0.044-0.311-0.09-0.622-0.131-0.934c-0.09-0.68-0.171-1.362-0.249-2.044
			c-0.03-0.261-0.062-0.521-0.09-0.782c-0.077-0.726-0.144-1.454-0.206-2.181c-0.02-0.229-0.043-0.457-0.061-0.686
			c-0.06-0.749-0.108-1.5-0.152-2.25c-0.013-0.215-0.03-0.429-0.041-0.645c-0.04-0.762-0.068-1.525-0.093-2.288
			c-0.007-0.206-0.018-0.411-0.024-0.618c-0.026-0.964-0.039-1.928-0.039-2.892v-32.581c0-0.043,0.001-0.091,0.001-0.122
			c0-0.007,0-0.015,0-0.022c0.001-1.272,0.032-2.54,0.077-3.806c0.009-0.257,0.018-0.511,0.029-0.776l0.005-0.147
			c0.046-1.057,0.112-2.111,0.188-3.163c0.033-0.452,0.066-0.903,0.106-1.364c0.09-1.061,0.195-2.12,0.316-3.176
			c0.046-0.406,0.097-0.802,0.147-1.2c0.133-1.053,0.277-2.104,0.44-3.152c0.038-0.247,0.076-0.491,0.114-0.73
			c0.188-1.156,0.398-2.307,0.624-3.455c0.053-0.27,0.104-0.536,0.16-0.808c0.246-1.202,0.511-2.399,0.797-3.591
			c0.047-0.193,0.094-0.388,0.143-0.584c0.273-1.108,0.567-2.211,0.875-3.311c0.101-0.36,0.204-0.718,0.308-1.076
			c0.319-1.095,0.652-2.187,1.007-3.273c0.033-0.102,0.067-0.206,0.1-0.307c0.63-0.144,1.261-0.272,1.892-0.399
			c0.177-0.036,0.354-0.078,0.532-0.112c0.507-0.098,1.016-0.182,1.524-0.27c0.303-0.052,0.606-0.112,0.91-0.161
			c0.486-0.078,0.974-0.142,1.461-0.211c0.326-0.046,0.651-0.099,0.977-0.141c0.384-0.049,0.769-0.086,1.153-0.13
			c0.431-0.049,0.861-0.104,1.293-0.146c0.211-0.021,0.423-0.033,0.634-0.052c0.605-0.054,1.21-0.109,1.816-0.15
			c0.117-0.008,0.235-0.011,0.352-0.019c21.967-1.397,44.658,5.712,68.406,13.155c23.553,7.382,47.908,15.016,73.589,15.016
			c13.516,0,25.897-1.388,37.054-4.142c0.082-0.02,0.162-0.044,0.244-0.064c1.031-0.257,2.054-0.523,3.065-0.803
			c1.899-0.527,3.753-1.103,5.576-1.712c0.272-0.091,0.55-0.175,0.821-0.268c3.124-1.072,6.136-2.265,9.033-3.581
			c0.018,0.104,0.035,0.208,0.052,0.313c0.222,1.342,0.422,2.688,0.594,4.039c0.031,0.242,0.053,0.481,0.082,0.722
			c0.138,1.149,0.26,2.301,0.362,3.456c0.035,0.399,0.065,0.8,0.096,1.201c0.078,1.009,0.141,2.019,0.191,3.03
			c0.02,0.415,0.045,0.829,0.06,1.245c0.053,1.376,0.087,2.754,0.088,4.134c0,0.014,0.002,0.027,0.002,0.041
			c0,0.007-0.001,0.015-0.001,0.022v32.63c0,0.964-0.014,1.928-0.039,2.892c-0.005,0.207-0.017,0.412-0.024,0.618
			c-0.025,0.763-0.052,1.526-0.093,2.288c-0.011,0.215-0.028,0.43-0.041,0.645c-0.044,0.751-0.092,1.501-0.152,2.25
			c-0.018,0.229-0.041,0.457-0.061,0.686c-0.063,0.728-0.129,1.455-0.206,2.181c-0.028,0.261-0.06,0.521-0.09,0.782
			c-0.077,0.682-0.159,1.364-0.249,2.044c-0.041,0.312-0.087,0.623-0.131,0.934c-0.087,0.613-0.177,1.225-0.274,1.836
			c-0.061,0.381-0.125,0.76-0.189,1.14c-0.088,0.521-0.18,1.042-0.276,1.562c-0.086,0.464-0.175,0.927-0.267,1.389
			c-0.081,0.411-0.166,0.821-0.252,1.23c-7.887,37.343-35.011,67.671-70.479,80.094c-0.434,0.152-0.868,0.306-1.303,0.452
			c-0.715,0.24-1.432,0.475-2.154,0.701c-0.938,0.293-1.878,0.573-2.823,0.84c-0.632,0.179-1.268,0.349-1.905,0.517
			c-0.96,0.252-1.922,0.495-2.889,0.72c-0.6,0.14-1.203,0.271-1.806,0.401c-0.912,0.196-1.827,0.383-2.745,0.555
			c-0.559,0.106-1.119,0.208-1.681,0.305c-1.076,0.185-2.154,0.353-3.236,0.506c-0.394,0.056-0.788,0.115-1.183,0.166
			c-1.281,0.166-2.567,0.307-3.856,0.428c-0.347,0.033-0.694,0.064-1.042,0.093c-1.35,0.113-2.704,0.206-4.062,0.269
			c-0.245,0.012-0.492,0.018-0.738,0.028c-1.464,0.058-2.93,0.097-4.402,0.097c-0.909,0-1.815-0.012-2.718-0.034
			c-0.214-0.005-0.426-0.016-0.64-0.022c-0.701-0.021-1.402-0.045-2.1-0.08c-0.2-0.01-0.399-0.024-0.598-0.035
			c-0.724-0.04-1.447-0.084-2.167-0.138c-0.145-0.011-0.29-0.024-0.435-0.035c-0.788-0.062-1.574-0.131-2.357-0.21
			c-0.072-0.007-0.144-0.016-0.216-0.023C197.62,292.17,159.323,257.03,149.695,211.442z M235.443,354.332l-30.722,16.036
			l-6.922-25.926L235.443,354.332z M188.087,365.904l4.622,17.312v0.001l23.239,87.044l-53.591-69.923
			c-1.429-1.866-1.605-4.392-0.447-6.436l22.87-40.382L188.087,365.904z M122.378,497.079v-39.388c0-4.324-3.505-7.829-7.829-7.829
			c-4.324,0-7.829,3.505-7.829,7.829v39.389H49.628c-0.746,0-1.353-0.607-1.353-1.353v-50.613c0-18.166,5.751-35.456,16.632-50.003
			c10.881-14.546,25.843-24.947,43.269-30.078l63.53-18.706l-22.779,40.221c-4.114,7.264-3.491,16.239,1.587,22.865l67.19,87.666
			H122.378z M229.204,462.07l-20.539-76.93l12.769-6.665l12.821,28.399L229.204,462.07z M240.995,496.942l7.677-83.886h14.652
			l7.677,83.886H240.995z M265.316,398.136H246.68l-11.998-26.576l21.316-11.125l21.316,11.126L265.316,398.136z M277.742,406.874
			l12.821-28.399l12.769,6.665l-20.539,76.93L277.742,406.874z"/>
	</g>
</g>
<g>
</g>
<g>
</g>
<g>
</g>
<g>
</g>
<g>
</g>
<g>
</g>
<g>
</g>
<g>
</g>
<g>
</g>
<g>
</g>
<g>
</g>
<g>
</g>
<g>
</g>
<g>
</g>
<g>
</g>
</svg>
