<svg id="Capa_1" enable-background="new 0 0 512 512" height="512" viewBox="0 0 512 512" width="512" xmlns="http://www.w3.org/2000/svg"><g><g><g><g><g><path d="m319.822 80.654 18.182 18.183 25.098-25.098c16.975-16.975 16.975-44.497 0-61.472l-10.586-10.588c-2.235-2.235-5.858-2.235-8.093 0l-24.601 24.601c-15.015 15.015-15.015 39.359 0 54.374z" fill="#fc5a95"/><path d="m363.106 73.738-25.103 25.103-18.186-18.186c-3.124-3.124-5.598-6.654-7.424-10.419l23.606-23.606c12.445-12.445 15.761-30.566 9.956-46.041 2.14-1.056 4.785-.692 6.561 1.084l10.59 10.59c16.973 16.974 16.973 44.502 0 61.475z" fill="#fb3a82"/></g></g></g><g><g><path d="m409.814 155.987c-2.369 45.792-32.059 83.696-72.466 98.729-38.64-19.122-64.26-59.888-61.891-105.68 2.278-44.031 29.816-80.768 67.851-96.893 2.911-1.234 6.248-1.061 9.016.466 36.169 19.964 59.768 59.347 57.49 103.378z" fill="#64e0c4"/><path d="m409.815 155.985c-2.369 45.792-32.06 83.696-72.466 98.729-5.555-2.747-10.835-5.942-15.8-9.532 31.669-18.239 53.738-51.66 55.767-90.879s-16.474-74.739-46.091-96.148c3.889-2.24 7.925-4.252 12.089-6.017 2.909-1.233 6.244-1.058 9.01.468 36.168 19.964 59.768 59.348 57.491 103.379z" fill="#27d1b3"/></g></g><g><path d="m451.84 250.157c23.023-2.588 46.147-16.121 56.695-35.051 1.669-2.996 1.67-6.68.001-9.676-11.231-20.168-36.748-34.217-61.203-35.426v-7.318c0-6.529-6.039-11.342-12.422-9.971-26.543 5.702-46.439 29.302-46.439 57.549s19.897 51.847 46.439 57.549c6.384 1.371 12.422-3.441 12.422-9.971v-2.575c.001-2.597 1.928-4.82 4.507-5.11z" fill="#17998c"/><g fill="#138b80"><path d="m388.469 210.262c0-4.95.615-9.751 1.77-14.341 5.408 21.624 22.787 38.508 44.674 43.204 6.383 1.373 12.421-3.435 12.421-9.961v-2.578c0-2.596 1.928-4.818 4.508-5.109 18.951-2.134 37.976-11.678 49.984-25.548 2.588 2.978 4.845 6.15 6.713 9.503 1.665 3 1.665 6.676 0 9.676-10.541 18.909-33.62 32.425-56.612 35.042-2.602.296-4.593 2.447-4.593 5.065v2.632c0 6.526-6.038 11.333-12.421 9.961-26.545-5.695-46.444-29.299-46.444-57.546z"/><path d="m448.43 201.973h-56.265c-4.267 0-7.726 3.459-7.726 7.726 0 4.268 3.459 7.726 7.726 7.726h56.265c4.267 0 7.726-3.459 7.726-7.726s-3.459-7.726-7.726-7.726z"/></g></g><g><g><path d="m372.178 295.59c-29.34 17.714-65.241 15.211-91.472-3.506-4.347-31.93 10.157-64.865 39.497-82.579 28.211-17.033 62.488-15.373 88.402 1.419 1.983 1.285 3.274 3.423 3.488 5.777 2.791 30.751-11.704 61.857-39.915 78.889z" fill="#138b80"/></g></g><g><g><path d="m294.259 166.529c-8.221 33.272-35.377 56.887-67.16 62.201-25.651-19.504-38.684-53.049-30.464-86.321 7.905-31.992 33.315-55.056 63.513-61.507 2.311-.494 4.736.106 6.551 1.619 23.719 19.772 35.464 52.016 27.56 84.008z" fill="#64e0c4"/></g></g><path d="m248.114 120.697c-3.017-3.016-7.909-3.016-10.927 0l-34.868 34.868c-3.018 3.018-3.018 7.909 0 10.928 1.509 1.508 3.486 2.263 5.463 2.263s3.955-.755 5.463-2.263l34.868-34.868c3.019-3.018 3.019-7.91.001-10.928z" fill="#138b80"/><path d="m317.204 418.05-221.046-221.046s-108.575 99.459-92.28 308.596c.196 2.519 2.212 4.534 4.73 4.73 209.137 16.295 308.596-92.28 308.596-92.28z" fill="#eaf6ff"/><path d="m3.879 505.611c-.504-6.475-.884-12.843-1.158-19.104 196.104 8.516 289.505-93.437 289.505-93.437l24.978 24.978s-99.453 108.578-308.599 92.287c-2.517-.197-4.531-2.207-4.726-4.724z" fill="#d9ecfd"/><g><g><g><path d="m270.455 217.406 18.183 18.182 25.098-25.098c16.975-16.975 16.975-44.497 0-61.472l-10.587-10.587c-2.235-2.235-5.858-2.235-8.093 0l-24.601 24.601c-15.015 15.015-15.015 39.359 0 54.374z" fill="#fc5a95"/><path d="m313.74 210.49-25.103 25.103-18.186-18.186c-3.124-3.124-5.598-6.654-7.424-10.419l23.606-23.606c12.445-12.445 15.761-30.566 9.956-46.041 2.14-1.056 4.785-.692 6.561 1.084l10.59 10.59c16.973 16.974 16.973 44.502 0 61.475z" fill="#fb3a82"/></g><g><path d="m349.5 198.519c1.977 0 3.955-.755 5.463-2.263l31.95-31.951c3.018-3.018 3.018-7.909 0-10.928-3.017-3.016-7.909-3.016-10.927 0l-31.95 31.951c-3.018 3.018-3.018 7.909 0 10.928 1.51 1.509 3.487 2.263 5.464 2.263z" fill="#138b80"/><path d="m292.169 239.12-18.183-18.183 25.098-25.098c16.975-16.975 44.497-16.975 61.472 0l10.587 10.587c2.235 2.235 2.235 5.858 0 8.093l-24.601 24.601c-15.014 15.014-39.358 15.014-54.373 0z" fill="#fc78a8"/><path d="m371.142 214.519-24.597 24.597c-15.019 15.019-39.366 15.019-54.378.007l-18.071-18.071c15.012 15.012 39.359 15.012 54.378-.007l24.597-24.597c1.533-1.533 2.018-3.716 1.448-5.655 2.125 1.469 4.151 3.152 6.04 5.042l10.59 10.59c2.232 2.232 2.232 5.855-.007 8.094z" fill="#fc5a95"/></g></g></g><g><g><g><path d="m386.808 290.157 18.865 18.865 26.04-26.04c17.612-17.612 17.612-46.167 0-63.78l-10.984-10.984c-2.319-2.319-6.078-2.319-8.397 0l-25.525 25.525c-15.578 15.578-15.578 40.836.001 56.414z" fill="#fc5a95"/><path d="m431.717 282.982-26.046 26.046-18.868-18.868c-3.241-3.241-5.808-6.904-7.703-10.81l24.492-24.492c12.912-12.912 16.352-31.713 10.329-47.77 2.22-1.095 4.965-.718 6.807 1.125l10.988 10.988c17.611 17.609 17.611 46.17.001 63.781z" fill="#fb3a82"/></g><g><path d="m409.337 312.686-18.865-18.865 26.04-26.04c17.612-17.612 46.167-17.612 63.78 0l10.984 10.984c2.319 2.319 2.319 6.078 0 8.397l-25.525 25.525c-15.578 15.578-40.836 15.578-56.414-.001z" fill="#fc78a8"/><path d="m491.274 287.162-25.52 25.52c-15.583 15.583-40.844 15.583-56.42.008l-18.75-18.75c15.576 15.576 40.837 15.576 56.42-.007l25.52-25.52c1.591-1.591 2.094-3.855 1.502-5.868 2.205 1.524 4.306 3.271 6.267 5.231l10.988 10.988c2.316 2.316 2.316 6.075-.007 8.398z" fill="#fc5a95"/></g></g></g><g><g><g><path d="m371.943 150.382 18.183 18.183 25.098-25.098c16.975-16.975 16.975-44.497 0-61.472l-10.587-10.587c-2.235-2.235-5.858-2.235-8.093 0l-24.601 24.601c-15.015 15.014-15.015 39.358 0 54.373z" fill="#fc5a95"/><path d="m415.227 143.466-25.103 25.103-18.186-18.186c-3.124-3.124-5.598-6.654-7.424-10.419l23.606-23.606c12.445-12.445 15.761-30.566 9.956-46.041 2.14-1.056 4.785-.692 6.561 1.084l10.59 10.59c16.973 16.974 16.973 44.502 0 61.475z" fill="#fb3a82"/></g><g><path d="m393.657 172.096-18.182-18.182 25.098-25.098c16.975-16.975 44.497-16.975 61.472 0l10.587 10.587c2.235 2.235 2.235 5.858 0 8.093l-24.601 24.601c-15.016 15.013-39.36 15.013-54.374-.001z" fill="#fc78a8"/><path d="m472.629 147.495-24.597 24.597c-15.019 15.019-39.366 15.019-54.378.007l-18.071-18.071c15.012 15.012 39.359 15.012 54.378-.007l24.597-24.597c1.533-1.533 2.018-3.716 1.448-5.655 2.125 1.469 4.151 3.152 6.04 5.042l10.59 10.59c2.233 2.232 2.233 5.855-.007 8.094z" fill="#fc5a95"/></g></g></g><ellipse cx="206.681" cy="307.527" fill="#64b9fc" rx="39.539" ry="156.303" transform="matrix(.707 -.707 .707 .707 -156.919 236.218)"/><path d="m317.204 418.048c-15.443 15.443-77.441-21.525-138.477-82.562-61.044-61.044-98.012-123.041-82.569-138.484.656-.656 1.391-1.217 2.222-1.683 12.056 27.368 41.135 66.587 79.961 105.413 58.458 58.458 117.789 94.829 136.27 84.244 6.898 15.669 8.209 27.455 2.593 33.072z" fill="#31a7fb"/><path d="m164.613 265.457-25.858 25.868c-3.358-4.141-6.573-8.231-9.612-12.249l24.539-24.549c3.018-3.008 7.912-3.008 10.93 0 3.019 3.018 3.019 7.912.001 10.93z" fill="#138b80"/><path d="m195.853 283.815-34.218 33.883c-3.564-3.853-7.016-7.696-10.343-11.507l27.022-27.032c3.018-3.008 7.912-3.008 10.93 0 3.019 3.018 9.628 1.638 6.609 4.656z" fill="#138b80"/><g><path d="m264.54 359.966-26.939 26.95c-4.038-3.008-8.159-6.191-12.331-9.529l28.351-28.351c3.018-3.019 7.912-3.019 10.92 0 3.018 3.018 3.018 7.911-.001 10.93z" fill="#138b80"/></g><g><path d="m210.344 156.435c-2.588-23.023-16.121-46.147-35.051-56.695-2.996-1.669-6.68-1.67-9.676-.001-18.932 10.542-32.471 33.673-35.061 56.697-.29 2.579-2.513 4.506-5.109 4.506h-2.575c-6.529 0-11.342 6.039-9.971 12.422 5.702 26.543 29.302 46.439 57.549 46.439s51.847-19.897 57.549-46.439c1.371-6.384-3.441-12.422-9.971-12.422h-2.575c-2.595 0-4.819-1.927-5.109-4.507z" fill="#17998c"/><g fill="#138b80"><path d="m170.451 224.974c4.267 0 7.726-3.459 7.726-7.726v-65.168c0-4.268-3.459-7.726-7.726-7.726s-7.726 3.459-7.726 7.726v65.167c-.001 4.268 3.459 7.727 7.726 7.727z"/><path d="m170.449 219.807c-4.95 0-9.751-.615-14.341-1.77 21.624-5.408 38.508-22.787 43.204-44.674 1.373-6.383-3.435-12.421-9.961-12.421h-2.578c-2.596 0-4.818-1.928-5.109-4.508-2.134-18.951-11.678-37.976-25.548-49.984 2.978-2.588 6.15-4.845 9.503-6.713 3-1.665 6.676-1.665 9.676 0 18.909 10.541 32.425 33.62 35.042 56.612.296 2.602 2.447 4.593 5.065 4.593h2.632c6.526 0 11.333 6.038 9.961 12.421-5.694 26.544-29.298 46.444-57.546 46.444z"/></g></g><g><g><path d="m294.834 247.548c-1.771 34.227-23.963 62.558-54.164 73.794-28.881-14.293-48.031-44.762-46.26-78.99 1.703-32.91 22.285-60.369 50.715-72.422 2.176-.922 4.67-.793 6.739.349 27.033 14.923 44.673 44.359 42.97 77.269z" fill="#64e0c4"/><path d="m294.834 247.547c-1.771 34.227-23.963 62.558-54.164 73.794-4.152-2.053-8.098-4.442-11.81-7.124 23.671-13.633 40.166-38.613 41.683-67.927s-12.313-55.863-34.451-71.865c2.907-1.674 5.923-3.178 9.036-4.498 2.174-.922 4.667-.791 6.734.35 27.035 14.923 44.675 44.359 42.972 77.27z" fill="#27d1b3"/></g></g><g><path d="m358.096 401.249c-38.409 0-71.402-23.197-85.726-56.347 14.324-33.151 47.317-56.348 85.726-56.348 36.932 0 68.855 21.446 83.991 52.567 1.158 2.381 1.158 5.181 0 7.562-15.136 31.12-47.059 52.566-83.991 52.566z" fill="#64e0c4"/><g fill="#27d1b3"><path d="m358.098 401.249c-38.409 0-71.402-23.197-85.726-56.348 2.058-4.766 4.502-9.321 7.29-13.63 16.628 25.703 45.541 42.718 78.436 42.718s61.808-17.015 78.436-42.718c2.042 3.156 3.9 6.445 5.557 9.852 1.157 2.38 1.156 5.177-.002 7.557-15.135 31.122-47.059 52.569-83.991 52.569z"/><path d="m408.513 337.175h-28.404l10.035-10.034c3.018-3.018 3.018-7.909 0-10.928-3.017-3.016-7.909-3.016-10.927 0l-20.962 20.962h-18.392l14.069-14.069c3.018-3.018 3.018-7.909 0-10.928-3.017-3.016-7.909-3.016-10.927 0l-24.997 24.997h-45.64c-4.267 0-7.726 3.459-7.726 7.726s3.459 7.726 7.726 7.726h45.602l23.964 23.964c1.509 1.508 3.486 2.263 5.463 2.263s3.955-.755 5.463-2.263c3.018-3.018 3.018-7.909 0-10.928l-13.037-13.036h18.555l19.928 19.928c1.509 1.508 3.486 2.263 5.463 2.263s3.955-.755 5.463-2.263c3.018-3.018 3.018-7.909 0-10.928l-9-9h28.279c4.267 0 7.726-3.459 7.726-7.726s-3.457-7.726-7.724-7.726z"/></g></g><g><g><path d="m146.642 253.836 18.182 18.183 25.098-25.098c16.975-16.975 16.975-44.497 0-61.472l-10.587-10.587c-2.235-2.235-5.858-2.235-8.093 0l-24.601 24.601c-15.014 15.014-15.014 39.358.001 54.373z" fill="#fc5a95"/><path d="m189.926 246.92-25.103 25.103-18.186-18.186c-3.124-3.124-5.598-6.654-7.424-10.419l23.606-23.606c12.445-12.445 15.761-30.566 9.956-46.041 2.14-1.056 4.785-.692 6.561 1.084l10.59 10.59c16.973 16.974 16.973 44.502 0 61.475z" fill="#fb3a82"/></g><g><path d="m168.356 275.55-18.183-18.182 25.098-25.098c16.975-16.975 44.497-16.975 61.472 0l10.587 10.587c2.235 2.235 2.235 5.858 0 8.093l-24.601 24.601c-15.015 15.013-39.359 15.013-54.373-.001z" fill="#fc78a8"/><path d="m247.328 250.949-24.597 24.597c-15.019 15.019-39.366 15.019-54.378.007l-18.071-18.071c15.012 15.012 39.359 15.012 54.378-.007l24.597-24.597c1.533-1.533 2.018-3.716 1.448-5.655 2.125 1.469 4.151 3.152 6.04 5.042l10.59 10.59c2.233 2.232 2.233 5.855-.007 8.094z" fill="#fc5a95"/></g></g><g><g><path d="m246.715 351.254 18.183 18.182 25.098-25.098c16.975-16.975 16.975-44.497 0-61.472l-10.587-10.587c-2.235-2.235-5.858-2.235-8.093 0l-24.601 24.601c-15.015 15.016-15.015 39.36 0 54.374z" fill="#fc5a95"/><path d="m290 344.339-25.103 25.103-18.186-18.186c-3.124-3.124-5.598-6.654-7.424-10.419l23.606-23.606c12.445-12.445 15.761-30.566 9.956-46.041 2.14-1.056 4.785-.692 6.561 1.084l10.59 10.59c16.973 16.974 16.973 44.501 0 61.475z" fill="#fb3a82"/></g><g><path d="m268.429 372.968-18.183-18.182 25.098-25.098c16.975-16.975 44.497-16.975 61.472 0l10.587 10.587c2.235 2.235 2.235 5.858 0 8.093l-24.601 24.601c-15.014 15.014-39.358 15.014-54.373-.001z" fill="#fc78a8"/><path d="m347.402 348.368-24.597 24.597c-15.019 15.019-39.366 15.019-54.378.007l-18.071-18.071c15.012 15.012 39.359 15.012 54.378-.007l24.597-24.597c1.533-1.533 2.018-3.716 1.448-5.655 2.125 1.469 4.151 3.152 6.04 5.042l10.59 10.59c2.232 2.232 2.232 5.855-.007 8.094z" fill="#fc5a95"/></g></g><g><g><g><path d="m229.2 118.284 18.183 18.183 25.098-25.098c16.975-16.975 16.975-44.497 0-61.472l-10.587-10.587c-2.235-2.235-5.858-2.235-8.093 0l-24.601 24.601c-15.015 15.014-15.015 39.358 0 54.373z" fill="#fc5a95"/><path d="m272.485 111.368-25.103 25.103-18.186-18.186c-3.124-3.124-5.598-6.654-7.424-10.419l23.606-23.606c12.445-12.445 15.761-30.566 9.956-46.041 2.14-1.056 4.785-.692 6.561 1.084l10.59 10.59c16.973 16.974 16.973 44.502 0 61.475z" fill="#fb3a82"/></g><g><path d="m250.914 139.998-18.183-18.183 25.098-25.098c16.975-16.975 44.497-16.975 61.472 0l10.587 10.587c2.235 2.235 2.235 5.858 0 8.093l-24.601 24.601c-15.014 15.015-39.358 15.015-54.373 0z" fill="#fc78a8"/><path d="m329.887 115.398-24.597 24.597c-15.019 15.019-39.366 15.019-54.378.007l-18.072-18.072c15.012 15.012 39.359 15.012 54.378-.007l24.597-24.597c1.533-1.533 2.018-3.716 1.448-5.655 2.125 1.469 4.151 3.152 6.04 5.042l10.59 10.59c2.233 2.232 2.233 5.855-.006 8.095z" fill="#fc5a95"/></g></g></g></g><g><g><path d="m140.743 445.358c-39.734 27.053-79.715 49.16-119.037 65.828-4.322-.233-8.691-.518-13.111-.861-2.516-.195-4.521-2.2-4.717-4.716-.342-4.41-.627-8.768-.86-13.08 8.046-18.986 17.42-38.24 27.959-57.433 2.05-3.74 6.748-5.11 10.487-3.06 3.74 2.05 5.11 6.748 3.06 10.487-9.776 17.812-18.523 35.665-26.105 53.271 37.509-16.153 75.646-37.365 113.619-63.212 3.534-2.4 8.334-1.483 10.734 2.04 2.411 3.524 1.495 8.335-2.029 10.736z" fill="#d9ecfd"/></g></g></g></svg>