<svg id="Layer_1" enable-background="new 0 0 512.001 512.001" height="512" viewBox="0 0 512.001 512.001" width="512" xmlns="http://www.w3.org/2000/svg"><path d="m512.001 119.455v358.41c0 9.42-7.64 17.06-17.06 17.06h-477.88c-9.432 0-17.06-7.659-17.06-17.06v-358.41c0-9.418 7.64-17.06 17.06-17.06h113.02c7.57 31.41 34.75 59.17 61.92 80 32 24.53 64 39.47 64 39.47s109.42-51.06 125.92-119.47h113.02c9.418 0 17.06 7.64 17.06 17.06z" fill="#f2f2f2"/><g fill="#f9f9f9"><path d="m196.268 298.662-86.798 86.798c-21.503 21.503-58.269 6.274-58.269-24.136v-207.729z"/><path d="m460.801 443.729h-327.195c-30.41 0-45.639-36.766-24.136-58.269l86.797-86.797 59.733 59.733 59.733-59.733z"/><path d="m512.001 119.455v307.21l-113.86-113.86c-26.564-26.564-26.751-69.799 0-96.55l108.86-108.86c3.09 3.08 5 7.35 5 12.06z"/><path d="m507.001 107.395c-7.322 7.322-161.095 161.095-168.59 168.59-26.594 26.594-69.835 26.714-96.55 0l-173.59-173.59h426.67c4.71 0 8.98 1.91 12.06 5z"/></g><path d="m512.001 119.455c0 4.53-1.8 8.87-5 12.07-142.494 142.483-96.46 96.45-238.94 238.93-6.637 6.677-17.48 6.68-24.12 0-144.312-144.312-131.02-131.01-238.94-238.93-10.673-10.673-3.149-29.13 12.06-29.13 4.52 0 8.87 1.8 12.07 5 207.994 207.994 163.693 163.696 226.87 226.86 51.458-51.444 10.469-10.459 226.87-226.86 10.776-10.776 29.13-2.995 29.13 12.06z" fill="#ece2e2"/><path d="m208.331 310.725c-129.634 129.634-90.069 90.066-179.2 179.21-6.62 6.62-17.452 6.69-24.13-.01-4.923-4.923-6.324-12.232-3.7-18.59 1.965-4.715-10.035 8.194 182.9-184.74 6.66-6.66 17.47-6.66 24.13 0 6.67 6.66 6.67 17.471 0 24.13z" fill="#ece2e2"/><path d="m512.001 477.865c0 12.117-12.305 20.394-23.59 15.77-4.576-1.897 8.455 10.285-184.74-182.91-6.667-6.651-6.672-17.458 0-24.13 6.706-6.706 17.511-6.619 24.13 0 8.069 8.069 164.921 164.93 179.2 179.21 3.2 3.2 5 7.54 5 12.06z" fill="#ece2e2"/><path d="m381.921 102.395c-16.501 68.405-125.92 119.467-125.92 119.467s-32-14.933-64-39.467c-40.03-30.695-77.88-75.255-59.211-122.251 21.239-53.46 95.244-58.284 123.211-7.883 22.242-40.085 76.213-47.008 108.011-15.211 16.559 16.561 23.903 40.66 17.909 65.345z" fill="#ea8692"/><path d="m379.212 60.155c-10.183 27.973-35.092 52.647-59.87 71.542-37.303 28.447-89.045 28.634-126.381.231-24.028-18.279-49.757-43.164-60.171-71.784 21.239-53.46 95.244-58.284 123.211-7.883 28.123-50.683 102.183-45.193 123.211 7.894z" fill="#fe929f"/></svg>